<svg id="Layer_1" data-name="Layer 1" xmlns="http://www.w3.org/2000/svg" viewBox="0 0 1211.68 444.49"><defs><style>.cls-1{fill:#e1fd9f;}.cls-2{fill:#a5e887;}.cls-3{fill:#00cc76;}.cls-4{fill:#009959;}.cls-5{fill:#007845;}</style></defs><path class="cls-1" d="M125.37,158,247.25,451.13l11.48-7.78L202.05,291.51,137.4,153Z" transform="translate(-49.99 -13)"/><path class="cls-2" d="M149.42,148l-12,5L259.16,445.86l6.47-18.36Z" transform="translate(-49.99 -13)"/><path class="cls-3" d="M64.64,117.58c.49,1.18,1,2.33,1.58,3.46a26,26,0,0,1-3.39,28.45,53.62,53.62,0,0,0,12.49,80.34c9.78,6,15,17.52,12.26,28.7A53.54,53.54,0,0,0,129,323.58c30.74,6.35,60.59,16.41,88.05,31.6l5.73,3.17L201,211.85,93.56,47.52A53.6,53.6,0,0,0,64.64,117.58Z" transform="translate(-49.99 -13)"/><path class="cls-4" d="M235.66,163.17a53.6,53.6,0,0,0-48.13-65.51A26,26,0,0,1,165,80c-.4-1.19-.85-2.38-1.34-3.56A53.59,53.59,0,0,0,93.56,47.52L222.78,358.35l1.79-6.3c8.6-30.18,22.52-58.44,39.7-84.71a53.52,53.52,0,0,0-16.91-75.24c-9.83-6-14.3-17.73-11.7-28.93Z" transform="translate(-49.99 -13)"/><path class="cls-2" d="M387.06,158,265.18,451.13l-11.49-7.78,56.69-151.84L375,153Z" transform="translate(-49.99 -13)"/><path class="cls-1" d="M363,148l12,5L253.27,445.86,246.8,427.5Z" transform="translate(-49.99 -13)"/><path class="cls-5" d="M447.78,117.58c-.49,1.18-1,2.33-1.58,3.46a26,26,0,0,0,3.4,28.45,53.62,53.62,0,0,1-12.49,80.34c-9.78,6-15,17.52-12.26,28.7a53.54,53.54,0,0,1-41.42,65.05c-30.74,6.35-60.59,16.41-88.05,31.6l-5.73,3.17,21.81-146.5L418.87,47.52a53.58,53.58,0,0,1,28.91,70.06Z" transform="translate(-49.99 -13)"/><path class="cls-4" d="M276.76,163.17A53.62,53.62,0,0,1,324.9,97.66,26,26,0,0,0,347.47,80c.4-1.19.85-2.38,1.34-3.56a53.59,53.59,0,0,1,70.06-28.91L289.65,358.35l-1.79-6.3c-8.61-30.18-22.52-58.44-39.7-84.71a53.52,53.52,0,0,1,16.91-75.24c9.83-6,14.3-17.73,11.69-28.93Z" transform="translate(-49.99 -13)"/><path class="cls-2" d="M202.62,66.59c0,1.28,0,2.55.13,3.8a26,26,0,0,1-14.06,25,53.6,53.6,0,0,0-19.3,79c6.7,9.35,7.1,21.92.31,31.21a53.51,53.51,0,0,0,13.27,76c25.94,17.66,49.64,38.42,69.17,63l4.07,5.12L292.31,206,256.21,13a53.6,53.6,0,0,0-53.59,53.59Z" transform="translate(-49.99 -13)"/><path class="cls-3" d="M343,174.34a53.6,53.6,0,0,0-19.3-79,26,26,0,0,1-14.06-25c.08-1.25.13-2.52.13-3.8A53.6,53.6,0,0,0,256.21,13V349.62l4.08-5.12c19.53-24.57,43.23-45.33,69.17-63a53.51,53.51,0,0,0,13.27-76c-6.79-9.29-6.39-21.86.31-31.21Z" transform="translate(-49.99 -13)"/><path class="cls-1" d="M243.19,127.2V457.49h13L262.73,280,256.21,127.2Z" transform="translate(-49.99 -13)"/><path class="cls-2" d="M256.21,127.2h13V457.49h-13Z" transform="translate(-49.99 -13)"/><path class="cls-5" d="M581.64,193.19a2.33,2.33,0,0,1-2.41-2.56V171.47a2.49,2.49,0,0,1,2.71-2.57h10.71v-57H581.94c-2.11,0-2.71-.76-2.71-2.57V90.15c0-1.81.9-2.56,2.41-2.56h94.44a1.62,1.62,0,0,1,1.81,1.66V125.3c0,1.36-.6,1.81-1.81,1.81H663.86a2.25,2.25,0,0,1-2.26-1.66l-5.43-13.57H617.85v18.85h35.6c1.81,0,2.57.91,2.57,2.42v15.39c0,2.11-.76,2.71-2.57,2.71h-35.6V168.9h14.48c2.11,0,2.72.76,2.72,2.57v19.16c0,1.81-.91,2.56-2.42,2.56Z" transform="translate(-49.99 -13)"/><path class="cls-5" d="M755.58,180.22a1.7,1.7,0,0,1-.45,1.2c-7.39,7.85-20.67,13.58-34.4,13.58-22.32,0-42.24-12.67-42.24-40.28,0-25.5,18.71-40.43,40.89-40.43,21.12,0,37.11,12.82,37.11,34.4v8.14a2.39,2.39,0,0,1-2.42,2.42H704.14c1.51,8,10.26,12.22,19.91,12.22,8,0,16.6-2.87,22.63-8.6a1.87,1.87,0,0,1,1.81-.46l5.89,1.82a1.58,1.58,0,0,1,1.2,1.5Zm-21.42-32.14c0-7.69-6-11.92-14.48-11.92-9.36,0-14.33,4.38-15.69,11.92Z" transform="translate(-49.99 -13)"/><path class="cls-5" d="M843.83,180.22a1.7,1.7,0,0,1-.45,1.2C836,189.27,822.71,195,809,195c-22.33,0-42.25-12.67-42.25-40.28,0-25.5,18.71-40.43,40.89-40.43,21.12,0,37.11,12.82,37.11,34.4v8.14a2.39,2.39,0,0,1-2.41,2.42H792.39c1.51,8,10.26,12.22,19.91,12.22,8,0,16.6-2.87,22.63-8.6a1.87,1.87,0,0,1,1.81-.46l5.89,1.82a1.58,1.58,0,0,1,1.2,1.5Zm-21.42-32.14c0-7.69-6-11.92-14.48-11.92-9.35,0-14.33,4.38-15.69,11.92Z" transform="translate(-49.99 -13)"/><path class="cls-5" d="M924.24,193.19c-2.87,0-3.77-1.36-4.53-3.32l-4.52-12.67-1.51.15C910.81,188.06,901.91,195,889.84,195c-17,0-35.3-11-35.3-40.43,0-27.46,18.86-40.13,33.49-40.13,13.88,0,22.48,7.09,24.59,19h1.06V110.06H900.1c-2.11,0-2.71-.75-2.71-2.56V90.15c0-1.81.9-2.56,2.41-2.56h35a2.45,2.45,0,0,1,2.57,2.56v80.56l7.09,18.41c1,2.71-.76,4.07-2.27,4.07Zm-9.81-39.37c0-10.11-8.75-15.24-17.5-14.94-8.44.15-16.74,5.43-16.74,15.84,0,12.37,9.8,17.8,18.86,16.75C907,170.56,914.43,164.53,914.43,153.82Z" transform="translate(-49.99 -13)"/><path class="cls-5" d="M1055.94,160.15c0,27.46-14.33,34.85-30.93,34.85-12.82,0-27.61-8.15-27.61-32.43V138.73H989c-2.12,0-2.72-.76-2.72-3.17V120.63a1.93,1.93,0,0,1,.6-1.51l22-22.78a1.34,1.34,0,0,1,1.06-.46h9.2c1.51,0,2,.76,2,2.27v18.1h28.66c1.36,0,1.81.6,1.81,1.51v19.31a1.63,1.63,0,0,1-1.81,1.66h-28.66v18.86c0,9.35,3.17,13.27,10.11,13.27,7.69,0,10.71-3.77,10.71-10.86V147.93c0-.9.45-1.51,2-1.51h10.41c.91,0,1.66.31,1.66,1.51Z" transform="translate(-49.99 -13)"/><path class="cls-5" d="M1118.1,193.19a2.46,2.46,0,0,1-2.57-2.56V173.28a2.46,2.46,0,0,1,2.57-2.57h6.18V148.54c0-5.89-5.43-9.06-11.31-9.06-7.4,0-15.54,4.83-15.54,14.94v16.29h5.73a2.45,2.45,0,0,1,2.56,2.57v17.35a2.45,2.45,0,0,1-2.56,2.56h-38.47a2.46,2.46,0,0,1-2.57-2.56V173.28a2.46,2.46,0,0,1,2.57-2.57h9V110.06h-8.9c-2.11,0-2.72-.75-2.72-2.56V90.15c0-1.81.91-2.56,2.42-2.56h29.72c2.11,0,3,1,3,2.41v48.13h1.35c2.87-13.73,9.36-23.84,24.59-23.84,17.2,0,24.75,12.37,24.75,27v29.42h9a2.45,2.45,0,0,1,2.56,2.57v17.35a2.45,2.45,0,0,1-2.56,2.56Z" transform="translate(-49.99 -13)"/><path class="cls-5" d="M1242,180.22a1.7,1.7,0,0,1-.45,1.2c-7.39,7.85-20.67,13.58-34.4,13.58-22.33,0-42.24-12.67-42.24-40.28,0-25.5,18.71-40.43,40.88-40.43,21.12,0,37.12,12.82,37.12,34.4v8.14a2.39,2.39,0,0,1-2.42,2.42h-49.93c1.5,8,10.25,12.22,19.91,12.22,8,0,16.59-2.87,22.63-8.6a1.87,1.87,0,0,1,1.81-.46l5.88,1.82a1.58,1.58,0,0,1,1.21,1.5Zm-21.42-32.14c0-7.69-6-11.92-14.49-11.92-9.35,0-14.33,4.38-15.69,11.92Z" transform="translate(-49.99 -13)"/><path class="cls-3" d="M709.85,408.31c-4.11,0-6.3-.27-9.86-5.2L622.22,280.7v83.52h18.35c2.46,0,3.83.82,3.83,3.56v37c0,2.74-1.37,3.56-3.83,3.56H564.44c-2.47,0-3.84-.82-3.84-3.56v-37c0-2.74,1.37-3.56,3.84-3.56h20.81V260.71H564.44c-2.47,0-3.84-.82-3.84-3.56v-37c0-2.74,1.37-3.56,3.84-3.56h65.45c4.11,0,6.57.27,9.86,5.2L718.89,347V260.71H695.61c-2.46,0-3.83-.82-3.83-3.56v-37c0-2.74,1.37-3.56,3.83-3.56h80.24c2.46,0,3.83.82,3.83,3.56v37c0,2.74-1.37,3.56-3.83,3.56H755.31v144c0,2.74-1.37,3.56-3.83,3.56Z" transform="translate(-49.99 -13)"/><path class="cls-3" d="M918.25,384.76a3.09,3.09,0,0,1-.83,2.19C904,401.19,879.91,411.6,855,411.6c-40.53,0-76.68-23-76.68-73.12,0-46.28,34-73.39,74.21-73.39,38.34,0,67.37,23.28,67.37,62.44v14.79a4.33,4.33,0,0,1-4.38,4.38H824.86c2.74,14.51,18.62,22.18,36.15,22.18,14.51,0,30.12-5.2,41.08-15.61a3.39,3.39,0,0,1,3.28-.82l10.68,3.28c1.37.55,2.2,1.37,2.2,2.74Zm-38.89-58.33c0-14-11-21.63-26.29-21.63-17,0-26,7.94-28.48,21.63Z" transform="translate(-49.99 -13)"/><path class="cls-3" d="M1078.44,384.76a3.09,3.09,0,0,1-.82,2.19c-13.42,14.24-37.52,24.65-62.44,24.65-40.53,0-76.68-23-76.68-73.12,0-46.28,34-73.39,74.22-73.39,38.34,0,67.36,23.28,67.36,62.44v14.79a4.32,4.32,0,0,1-4.38,4.38H985.06c2.74,14.51,18.62,22.18,36.15,22.18,14.51,0,30.12-5.2,41.07-15.61a3.41,3.41,0,0,1,3.29-.82l10.68,3.28c1.37.55,2.19,1.37,2.19,2.74Zm-38.89-58.33c0-14-11-21.63-26.28-21.63-17,0-26,7.94-28.48,21.63Z" transform="translate(-49.99 -13)"/><path class="cls-3" d="M1224.4,408.31c-5.21,0-6.85-2.46-8.22-6l-8.22-23-2.73.27c-5.21,19.44-21.36,32-43.27,32-31,0-64.08-20-64.08-73.39,0-49.84,34.23-72.85,60.79-72.85,25.2,0,40.81,12.88,44.64,34.51h1.92V257.42h-24.65c-3.83,0-4.93-1.37-4.93-4.65v-31.5c0-3.28,1.64-4.65,4.38-4.65h63.54a4.46,4.46,0,0,1,4.65,4.65V367.51l12.87,33.41c1.92,4.93-1.37,7.39-4.11,7.39Zm-17.8-71.47c0-18.35-15.89-27.66-31.77-27.11-15.34.27-30.4,9.86-30.4,28.75,0,22.46,17.8,32.32,34.23,30.4C1193.18,367.24,1206.6,356.28,1206.6,336.84Z" transform="translate(-49.99 -13)"/></svg>