<svg id="Layer_1" data-name="Layer 1" xmlns="http://www.w3.org/2000/svg" viewBox="0 0 1835 1139"><defs><style>.cls-1{fill:#e5e5e5;}.cls-2{fill:#e1fd9f;}.cls-3{fill:#a5e887;}.cls-4{fill:#00cc76;}.cls-5{fill:#009959;}.cls-6{fill:#007845;}</style></defs><rect class="cls-1" x="-32" y="-26" width="1912" height="1205"/><path class="cls-2" d="M446.12,459.6l107.28,258,10.11-6.85-49.9-133.65L456.71,455.2Z"/><path class="cls-3" d="M467.29,450.8l-10.58,4.4L563.88,713l5.7-16.16Z"/><path class="cls-4" d="M392.67,424.05c.43,1,.89,2.06,1.39,3.05a22.91,22.91,0,0,1-3,25,47.18,47.18,0,0,0,11,70.71,23.43,23.43,0,0,1,10.79,25.27,47.11,47.11,0,0,0,36.45,57.25c27.06,5.59,53.33,14.45,77.51,27.82l5,2.79-19.2-129L418.12,362.38A47.18,47.18,0,0,0,392.67,424.05Z"/><path class="cls-5" d="M543.2,464.18a47.17,47.17,0,0,0-42.37-57.66A23,23,0,0,1,481,391c-.35-1.05-.74-2.1-1.17-3.13a47.18,47.18,0,0,0-61.67-25.46L531.86,636l1.58-5.54c7.57-26.57,19.82-51.44,34.94-74.56a47.12,47.12,0,0,0-14.88-66.23,23.41,23.41,0,0,1-10.3-25.47Z"/><path class="cls-3" d="M676.46,459.6l-107.28,258-10.11-6.85L609,577.15l56.9-121.95Z"/><path class="cls-2" d="M655.29,450.8l10.58,4.4L558.7,713,553,696.85Z"/><path class="cls-6" d="M729.91,424.05c-.43,1-.89,2.06-1.39,3.05a22.93,22.93,0,0,0,3,25,47.19,47.19,0,0,1-11,70.71,23.43,23.43,0,0,0-10.8,25.27,47.11,47.11,0,0,1-36.45,57.25c-27.06,5.59-53.33,14.45-77.51,27.82l-5,2.79,19.2-129,94.54-144.65a47.18,47.18,0,0,1,25.45,61.67Z"/><path class="cls-5" d="M579.38,464.18a47.17,47.17,0,0,1,42.37-57.66A23,23,0,0,0,641.62,391c.35-1.05.74-2.1,1.17-3.13a47.18,47.18,0,0,1,61.67-25.46L590.72,636l-1.58-5.54c-7.57-26.57-19.82-51.44-34.94-74.57a47.11,47.11,0,0,1,14.88-66.22,23.41,23.41,0,0,0,10.3-25.47Z"/><path class="cls-3" d="M514.12,379.17c0,1.13,0,2.24.11,3.35a22.93,22.93,0,0,1-12.37,22,47.18,47.18,0,0,0-17,69.51,23.42,23.42,0,0,1,.27,27.47,47.12,47.12,0,0,0,11.68,66.87c22.83,15.55,43.7,33.81,60.89,55.44l3.58,4.51,31.77-126.44L561.29,332a47.17,47.17,0,0,0-47.17,47.17Z"/><path class="cls-4" d="M637.71,474a47.18,47.18,0,0,0-17-69.51,22.93,22.93,0,0,1-12.37-22c.08-1.11.12-2.22.12-3.35A47.18,47.18,0,0,0,561.29,332V628.3l3.59-4.51c17.19-21.63,38-39.89,60.88-55.44a47.13,47.13,0,0,0,11.69-66.87,23.4,23.4,0,0,1,.26-27.47Z"/><path class="cls-2" d="M549.83,432.52V723.24h11.46L567,567l-5.73-134.45Z"/><path class="cls-3" d="M561.29,432.52h11.46V723.24H561.29Z"/><path class="cls-6" d="M847.73,490.61a2.06,2.06,0,0,1-2.12-2.26V471.48a2.19,2.19,0,0,1,2.39-2.25h9.43V419H848c-1.86,0-2.39-.66-2.39-2.26V399.91c0-1.59.8-2.26,2.12-2.26h83.13a1.44,1.44,0,0,1,1.6,1.46v31.74c0,1.2-.54,1.59-1.6,1.59H920.11a2,2,0,0,1-2-1.46l-4.78-12H879.6v16.6h31.34c1.6,0,2.26.8,2.26,2.13V451.3c0,1.86-.66,2.39-2.26,2.39H879.6v15.54h12.75c1.86,0,2.39.66,2.39,2.25v16.87c0,1.59-.79,2.26-2.12,2.26Z"/><path class="cls-6" d="M1000.84,479.19a1.51,1.51,0,0,1-.4,1.06c-6.5,6.9-18.19,11.95-30.27,11.95-19.66,0-37.19-11.15-37.19-35.46,0-22.44,16.47-35.58,36-35.58,18.59,0,32.67,11.28,32.67,30.27v7.17a2.1,2.1,0,0,1-2.13,2.13h-44c1.33,7,9,10.75,17.53,10.75A29.41,29.41,0,0,0,993,463.92a1.63,1.63,0,0,1,1.59-.4l5.18,1.59a1.4,1.4,0,0,1,1.06,1.33ZM982,450.9c0-6.77-5.32-10.49-12.75-10.49-8.24,0-12.62,3.85-13.81,10.49Z"/><path class="cls-6" d="M1078.52,479.19a1.51,1.51,0,0,1-.4,1.06c-6.5,6.9-18.19,11.95-30.27,11.95-19.66,0-37.18-11.15-37.18-35.46,0-22.44,16.46-35.58,36-35.58,18.59,0,32.67,11.28,32.67,30.27v7.17a2.1,2.1,0,0,1-2.13,2.13h-44c1.33,7,9,10.75,17.53,10.75a29.41,29.41,0,0,0,19.92-7.56,1.63,1.63,0,0,1,1.59-.4l5.18,1.59a1.4,1.4,0,0,1,1.06,1.33Zm-18.85-28.29c0-6.77-5.32-10.49-12.75-10.49-8.24,0-12.62,3.85-13.81,10.49Z"/><path class="cls-6" d="M1149.3,490.61c-2.53,0-3.32-1.2-4-2.92l-4-11.16-1.33.13c-2.52,9.43-10.36,15.54-21,15.54-15,0-31.07-9.69-31.07-35.59,0-24.17,16.6-35.32,29.48-35.32,12.21,0,19.78,6.24,21.64,16.73h.93V417.44h-12c-1.86,0-2.39-.67-2.39-2.26V399.91c0-1.59.8-2.26,2.12-2.26h30.81a2.16,2.16,0,0,1,2.26,2.26v70.91l6.24,16.2c.93,2.39-.66,3.59-2,3.59ZM1140.67,456c0-8.9-7.71-13.41-15.41-13.15-7.43.13-14.74,4.78-14.74,13.94,0,10.89,8.63,15.67,16.6,14.74C1134.16,470.69,1140.67,465.38,1140.67,456Z"/><path class="cls-6" d="M1265.22,461.53c0,24.16-12.62,30.67-27.22,30.67-11.29,0-24.3-7.17-24.3-28.55v-21h-7.44c-1.86,0-2.39-.67-2.39-2.79V426.73a1.67,1.67,0,0,1,.53-1.32l19.39-20.06a1.21,1.21,0,0,1,.93-.39h8.1c1.33,0,1.72.66,1.72,2v15.93h25.24c1.19,0,1.59.53,1.59,1.33v17a1.43,1.43,0,0,1-1.59,1.46h-25.24v16.6c0,8.23,2.79,11.68,8.9,11.68,6.77,0,9.43-3.32,9.43-9.56V450.77c0-.8.4-1.33,1.73-1.33h9.16c.8,0,1.46.27,1.46,1.33Z"/><path class="cls-6" d="M1319.93,490.61a2.16,2.16,0,0,1-2.26-2.26V473.08a2.16,2.16,0,0,1,2.26-2.26h5.45V451.3c0-5.18-4.79-8-10-8-6.51,0-13.68,4.25-13.68,13.15v14.34h5a2.16,2.16,0,0,1,2.26,2.26v15.27a2.16,2.16,0,0,1-2.26,2.26h-33.86a2.16,2.16,0,0,1-2.26-2.26V473.08a2.16,2.16,0,0,1,2.26-2.26h8V417.44h-7.84c-1.85,0-2.39-.67-2.39-2.26V399.91c0-1.59.8-2.26,2.13-2.26H1299c1.86,0,2.65.93,2.65,2.13v42.36h1.2c2.52-12.09,8.23-21,21.64-21,15.14,0,21.78,10.89,21.78,23.77v25.89h8a2.16,2.16,0,0,1,2.26,2.26v15.27a2.16,2.16,0,0,1-2.26,2.26Z"/><path class="cls-6" d="M1429,479.19a1.51,1.51,0,0,1-.4,1.06c-6.51,6.9-18.19,11.95-30.28,11.95-19.65,0-37.18-11.15-37.18-35.46,0-22.44,16.47-35.58,36-35.58,18.59,0,32.67,11.28,32.67,30.27v7.17a2.1,2.1,0,0,1-2.13,2.13h-43.95c1.32,7,9,10.75,17.53,10.75a29.4,29.4,0,0,0,19.91-7.56,1.64,1.64,0,0,1,1.6-.4l5.18,1.59a1.4,1.4,0,0,1,1.06,1.33Zm-18.86-28.29c0-6.77-5.31-10.49-12.75-10.49-8.23,0-12.61,3.85-13.81,10.49Z"/><path class="cls-4" d="M960.59,680c-3.62,0-5.55-.24-8.68-4.58L883.45,567.63v73.52H899.6c2.17,0,3.38.72,3.38,3.14v32.54c0,2.41-1.21,3.13-3.38,3.13h-67c-2.17,0-3.37-.72-3.37-3.13V644.29c0-2.42,1.2-3.14,3.37-3.14h18.32V550H832.59c-2.17,0-3.37-.73-3.37-3.14V514.36c0-2.41,1.2-3.13,3.37-3.13H890.2c3.62,0,5.79.24,8.68,4.58L968.54,626V550H948.05c-2.17,0-3.37-.73-3.37-3.14V514.36c0-2.41,1.2-3.13,3.37-3.13h70.63c2.17,0,3.38.72,3.38,3.13V546.9c0,2.41-1.21,3.14-3.38,3.14H1000.6V676.83c0,2.41-1.2,3.13-3.37,3.13Z"/><path class="cls-4" d="M1144,659.23a2.75,2.75,0,0,1-.72,1.93c-11.82,12.53-33,21.69-55,21.69-35.68,0-67.49-20.24-67.49-64.36,0-40.73,29.88-64.6,65.32-64.6,33.74,0,59.3,20.49,59.3,55v13a3.8,3.8,0,0,1-3.86,3.85h-79.79c2.41,12.78,16.39,19.53,31.82,19.53,12.78,0,26.52-4.58,36.16-13.74a3,3,0,0,1,2.89-.72l9.4,2.89a2.53,2.53,0,0,1,1.93,2.41Zm-34.23-51.34c0-12.3-9.64-19-23.14-19-14.94,0-22.9,7-25.07,19Z"/><path class="cls-4" d="M1285,659.23a2.71,2.71,0,0,1-.73,1.93c-11.81,12.53-33,21.69-55,21.69-35.67,0-67.49-20.24-67.49-64.36,0-40.73,29.89-64.6,65.33-64.6,33.74,0,59.29,20.49,59.29,55v13a3.8,3.8,0,0,1-3.85,3.85h-79.79c2.41,12.78,16.39,19.53,31.82,19.53,12.77,0,26.51-4.58,36.15-13.74a3,3,0,0,1,2.9-.72l9.4,2.89a2.54,2.54,0,0,1,1.93,2.41Zm-34.23-51.34c0-12.3-9.64-19-23.14-19-15,0-22.9,7-25.07,19Z"/><path class="cls-4" d="M1413.5,680c-4.58,0-6-2.17-7.23-5.3L1399,654.41l-2.41.24c-4.58,17.12-18.8,28.2-38.08,28.2-27.24,0-56.41-17.59-56.41-64.6,0-43.87,30.13-64.12,53.52-64.12,22.17,0,35.91,11.33,39.29,30.38h1.68V547.14h-21.69c-3.37,0-4.34-1.2-4.34-4.09V515.33c0-2.9,1.45-4.1,3.86-4.1h55.92a3.93,3.93,0,0,1,4.1,4.1V644l11.33,29.41c1.68,4.34-1.21,6.51-3.62,6.51Zm-15.67-62.91c0-16.15-14-24.35-28-23.87-13.5.25-26.76,8.68-26.76,25.31,0,19.77,15.67,28.45,30.13,26.76C1386,643.8,1397.83,634.16,1397.83,617.05Z"/></svg>